<?xml version="1.0" encoding="UTF-8"?>
<svg version="1.1" xmlns="http://www.w3.org/2000/svg" width="264" height="331">
<path d="M0 0 C87.12 0 174.24 0 264 0 C264 109.23 264 218.46 264 331 C176.88 331 89.76 331 0 331 C0 221.77 0 112.54 0 0 Z " fill="#FDFEFE" transform="translate(0,0)"/>
<path d="M0 0 C5.26465216 1.96871446 8.49600555 4.89185131 11 10 C11.66624699 14.49716721 11.13729562 16.95522217 8.796875 20.69921875 C7.60542298 23.0255395 6.94156899 24.40623784 7.19921875 27.02441406 C7.91826118 29.24004331 8.78887583 31.31556446 9.75 33.4375 C10.43389061 35.10713062 11.11198491 36.77914377 11.78515625 38.453125 C12.33067139 39.78827148 12.33067139 39.78827148 12.88720703 41.15039062 C14.88029716 46.25424054 16.53109306 51.46650849 18.1875 56.6875 C18.52491211 57.74928467 18.86232422 58.81106934 19.20996094 59.9050293 C26.33325977 82.61274179 26.33325977 82.61274179 26 90 C26.66 90 27.32 90 28 90 C28.04898438 89.42894531 28.09796875 88.85789062 28.1484375 88.26953125 C28.72473659 82.01966702 29.63037495 75.87289071 30.6953125 69.6875 C31.24358 67.03288953 31.24358 67.03288953 30 65 C29.7265625 62.828125 29.7265625 62.828125 29.625 60.25 C29.57601562 59.40953125 29.52703125 58.5690625 29.4765625 57.703125 C30.10108966 54.47795487 31.60393305 53.16937314 33.75732422 50.78955078 C36.21327974 47.25278183 36.57278124 42.98767458 37.25 38.8125 C37.56649201 37.02712771 37.8841501 35.24196162 38.203125 33.45703125 C38.33364258 32.67303955 38.46416016 31.88904785 38.59863281 31.08129883 C39 29 39 29 40 26 C39.4225 25.773125 38.845 25.54625 38.25 25.3125 C35.13625375 23.49614802 33.81095849 22.16917736 32 19 C31.26373026 14.568872 30.9626314 10.15126439 32.953125 6.0234375 C35.45137239 2.81366396 38.07693298 0.93406358 42 0 C47.24665744 -0.47696886 50.55844889 0.13766706 55 3 C57.62083595 5.27598911 58.81763938 6.88722808 59.3828125 10.3359375 C59.64038685 16.0540881 58.88966933 19.57009881 55 24 C52.30319601 26.78979723 51.33879319 26.99344976 47.36328125 27.0703125 C46.25339844 27.04710938 45.14351563 27.02390625 44 27 C43.79503906 28.10859375 43.59007812 29.2171875 43.37890625 30.359375 C43.10683538 31.82292867 42.83469638 33.28646967 42.5625 34.75 C42.36043945 35.84441406 42.36043945 35.84441406 42.15429688 36.9609375 C41.52540733 40.33546675 40.85677827 43.67634694 40 47 C40.85271484 46.89558594 40.85271484 46.89558594 41.72265625 46.7890625 C46.46201997 46.45675319 49.28639304 46.68565838 53 49.8125 C56.34683244 52.95015541 57.16398163 55.78659795 57.3125 60.3125 C57.25242941 64.93042698 56.10443184 67.47605034 53 71 C49.29277083 73.92675987 46.67259219 74.3259948 42 74 C41.54105193 75.52064794 41.08287786 77.04152948 40.625 78.5625 C40.36976563 79.40941406 40.11453125 80.25632812 39.8515625 81.12890625 C38.87758548 84.41272786 37.93667036 87.70536381 37 91 C37.84820312 90.07960938 38.69640625 89.15921875 39.5703125 88.2109375 C51.08887699 75.75888348 62.53614442 63.38640288 76 53 C75.84273437 52.44054687 75.68546875 51.88109375 75.5234375 51.3046875 C74.47531527 46.68982098 73.79778002 41.44434767 75.94140625 37.0859375 C78.47776942 33.85783891 81.03278955 31.94457392 85 31 C90.23085429 30.52446779 93.60579253 31.07052836 98 34 C101.08847593 37.41357866 102.26431338 40.03705837 102.4375 44.5625 C102.17535711 49.77040545 100.36391965 52.4229679 97 56.3125 C92.47728259 58.85652854 88.07995943 58.46181449 83 58 C82.35160156 57.731875 81.70320312 57.46375 81.03515625 57.1875 C78.73616666 56.76124601 78.73616666 56.76124601 76.25 58.82421875 C75.15302832 59.76293878 74.07079411 60.71902587 73 61.6875 C72.40550049 62.21206787 71.81100098 62.73663574 71.19848633 63.27709961 C58.65739434 74.52932098 46.07388164 86.4437889 36 100 C39.09771582 100.09284489 39.09771582 100.09284489 42.47265625 99.34375 C59.23269818 96.1829308 76.02105442 96.71169502 93 97 C93.20604858 95.81035645 93.20604858 95.81035645 93.41625977 94.59667969 C94.33948363 90.48985869 96.67123303 89.44562471 100 87 C103.07194908 85.46402546 105.60244293 85.7734962 109 86 C114.33739473 87.98844117 117.45333824 90.90667648 120 96 C120.38691286 100.64295428 120.47190735 103.0561853 118.375 107.25 C115.38314019 110.71425872 112.68512169 113.53049935 108.01171875 114.34765625 C103.48355956 114.54379121 100.50765299 113.82560936 97 111 C94.26932847 108.04177251 92.82851477 105.90230459 92 102 C75.09653955 101.66536297 58.71129678 101.76508252 41.99755859 104.72460938 C40 105 40 105 36 105 C36 105.66 36 106.32 36 107 C40.53832753 108.81602517 40.53832753 108.81602517 45 108 C49.49851996 107.58597692 53.63940679 107.46759396 57.875 109.125 C61.18116113 112.04220099 63.59431365 114.71340419 64.38671875 119.1796875 C64.65065523 124.58583476 63.59895931 127.78407624 60 132 C57 134 57 134 54 134 C56.77398363 139.1847075 59.88475566 143.51935326 63.75 147.9375 C64.25660156 148.52595703 64.76320312 149.11441406 65.28515625 149.72070312 C66.51828214 151.15159448 67.75840699 152.57644939 69 154 C69.91910156 153.51402344 70.83820313 153.02804688 71.78515625 152.52734375 C75.61537243 150.70764202 77.79942623 150.48414006 82 151 C87.26475711 152.9576933 90.49964373 155.89927321 93 161 C93.65361995 166.22895961 92.87250224 169.59549657 90 174 C86.52762516 177.89583519 84.3048035 179.34491786 79.0625 179.6875 C74.30564336 179.45073338 71.77450426 177.93919155 68.375 174.703125 C64.69154639 170.14066541 64.72907342 166.68945812 65 161 C65.33 160.01 65.66 159.02 66 158 C64.40340068 155.81677138 62.80578628 153.87273201 61 151.875 C59.97353121 150.70985445 58.94879356 149.54318155 57.92578125 148.375 C57.42256348 147.80265625 56.9193457 147.2303125 56.40087891 146.640625 C54.54620299 144.46854027 52.86890449 142.18266124 51.1875 139.875 C48.50863029 136.35658022 46.11931027 134.73926434 42 133 C38.59502741 130.54085313 37.76776467 128.55355253 37 124.5625 C36.896875 123.82128906 36.79375 123.08007812 36.6875 122.31640625 C35.78466522 119.27446863 34.01100609 117.42018161 32 115 C31.98541748 115.74870361 31.97083496 116.49740723 31.95581055 117.26879883 C30.9623615 163.11138222 20.12999699 202.92994103 -9 239 C-10.32 238.34 -11.64 237.68 -13 237 C-12.21625 235.989375 -11.4325 234.97875 -10.625 233.9375 C7.15157396 210.12359903 18.37127459 185.26937212 24 156 C24.24621094 154.80632812 24.49242187 153.61265625 24.74609375 152.3828125 C26.81096849 140.73407086 26.18042505 128.78314368 26 117 C25.76812988 117.58491211 25.53625977 118.16982422 25.29736328 118.77246094 C24.24173511 121.43236961 23.18339618 124.0911916 22.125 126.75 C21.76019531 127.67039062 21.39539063 128.59078125 21.01953125 129.5390625 C20.66503906 130.42851562 20.31054688 131.31796875 19.9453125 132.234375 C19.62062988 133.05131836 19.29594727 133.86826172 18.96142578 134.70996094 C18 137 18 137 16.87060547 139.14941406 C15.60507254 141.83947004 16.06767671 143.20303013 17 146 C17.680625 146.94875 18.36125 147.8975 19.0625 148.875 C21.42231861 152.68115904 21.62978324 154.59151734 21 159 C18.42422676 163.61862787 16.0807921 167.30640263 11 169 C6.30868877 169.54508569 2.89669352 169.44834676 -1.375 167.3125 C-4.67492133 164.40542645 -6.64869724 162.34201838 -7.31640625 157.890625 C-7.52863269 153.81040063 -7.17201795 151.35726805 -5.375 147.625 C-2.26808826 144.19104492 0.4408496 142.20787323 5.1640625 141.82421875 C7.1102299 141.81390338 9.05640346 141.89946914 11 142 C11.24492188 141.22398437 11.48984375 140.44796875 11.7421875 139.6484375 C13.37681751 134.90699517 15.24785059 130.27475879 17.125 125.625 C17.49753906 124.69816406 17.87007813 123.77132812 18.25390625 122.81640625 C19.16770139 120.54363371 20.08310707 118.27152417 21 116 C20.2265625 116.78503906 19.453125 117.57007813 18.65625 118.37890625 C13.56456827 123.52388256 8.48683859 128.61595693 2.96875 133.30859375 C0.72218493 135.23867842 -1.44583904 137.24418139 -3.625 139.25 C-8.93247726 144.05239752 -14.53539895 148.4335538 -20.19140625 152.8125 C-22.16343849 154.32957265 -22.16343849 154.32957265 -24 156 C-24.10607944 157.89469671 -24.18468253 159.79096049 -24.25 161.6875 C-24.69792148 167.57346825 -25.5349304 170.14380352 -30 174 C-34.02286614 176.39197446 -38.41622061 176.71902422 -43 176 C-46.65910484 174.20496744 -48.54823878 172.64752442 -50.875 169.3125 C-52.32463259 165.04413737 -52.96528985 161.44805563 -52 157 C-49.54008202 152.79664501 -46.52057957 149.86089878 -42 148 C-36.75992718 147.52362974 -34.39324935 148.34092803 -30 151 C-25.875463 150.6528855 -23.6299357 149.25114468 -20.5 146.625 C-19.62730469 145.89796875 -18.75460938 145.1709375 -17.85546875 144.421875 C-16.44201172 143.22304688 -16.44201172 143.22304688 -15 142 C-14.00613281 141.18015625 -13.01226562 140.3603125 -11.98828125 139.515625 C-5.82977151 134.41513038 0.13621238 129.12405749 6 123.6875 C6.62285889 123.11306152 7.24571777 122.53862305 7.88745117 121.94677734 C11.56834092 118.5010292 14.85264915 114.94014946 18 111 C13.545 111.495 13.545 111.495 9 112 C8.9175 112.886875 8.835 113.77375 8.75 114.6875 C7.88315869 118.51604913 6.7611973 120.2388027 4 123 C-0.04227329 125.35799275 -4.41687517 125.72790806 -9 125 C-13.35944153 122.77915243 -16.16830464 120.57923841 -18 116 C-18.22869139 112.98127368 -18.17766109 110.02023846 -18 107 C-18.82242188 107.13277344 -19.64484375 107.26554687 -20.4921875 107.40234375 C-27.31701806 108.48202249 -34.11515032 109.40942599 -41 110 C-41.103125 110.886875 -41.20625 111.77375 -41.3125 112.6875 C-42.23252957 117.12036977 -43.64400809 119.77113233 -47 122.8125 C-51.64103365 124.64957582 -56.07917487 124.65956843 -61 124 C-65.38015372 121.62741674 -67.3037142 118.6424664 -69 114 C-69.72824131 109.5595042 -69.37146991 106.72918168 -67.3125 102.6875 C-64.32038392 99.21017591 -62.31738379 97.31441891 -57.66796875 96.68359375 C-51.95889129 96.41825432 -48.40037799 97.03965981 -44 101 C-43.29154158 102.31160546 -42.61600142 103.64251539 -42 105 C-35.75453706 104.32972464 -29.52883659 103.58979104 -23.3125 102.6875 C-22.49716797 102.58244141 -21.68183594 102.47738281 -20.84179688 102.36914062 C-15.55234401 101.58662658 -12.44757306 100.09535705 -8 97 C-5.55078125 96.7578125 -5.55078125 96.7578125 -3.3125 97.125 C-2.56613281 97.23070312 -1.81976563 97.33640625 -1.05078125 97.4453125 C1 98 1 98 4 100 C6.58885171 100.29991069 9.09149082 100.50865225 11.6875 100.625 C12.38939453 100.66367188 13.09128906 100.70234375 13.81445312 100.7421875 C15.54254655 100.8362334 17.27123675 100.9191968 19 101 C5.21886364 89.35634602 -9.17726589 79.67257589 -25 71 C-25.76828125 70.5781543 -26.5365625 70.15630859 -27.328125 69.72167969 C-29.49992914 68.54310149 -31.68311398 67.39072238 -33.875 66.25 C-34.52259277 65.90243652 -35.17018555 65.55487305 -35.83740234 65.19677734 C-38.6655564 63.76733399 -40.60365473 62.9717687 -43.796875 63.19921875 C-46.11892185 63.94712965 -46.11892185 63.94712965 -48.375 65.5625 C-51.88762081 67.48607807 -54.03573462 67.47844582 -58 67 C-62.92624536 65.26497019 -66.04418516 62.54714181 -68.33203125 57.8515625 C-69.51601752 54.56963563 -69.6050271 52.4486545 -69 49 C-66.4971021 44.55937469 -63.86188881 40.87782321 -59 39 C-53.6389202 38.57451748 -50.31754174 38.49929048 -46 42 C-42.28018367 45.46619249 -42.28018367 45.46619249 -41 48 C-41.01906638 49.6260897 -41.0852843 51.25201411 -41.1875 52.875 C-41.18067793 55.54026103 -41.18067793 55.54026103 -40 58 C-35.72815067 60.97123378 -31.11016673 62.89286224 -26.34521484 64.94628906 C-22.40851628 66.71505765 -18.64439485 68.77751742 -14.875 70.875 C-14.12307373 71.29233398 -13.37114746 71.70966797 -12.59643555 72.13964844 C-5.3395718 76.24508127 1.34972775 80.98645279 8 86 C8.87140625 86.64710938 9.7428125 87.29421875 10.640625 87.9609375 C12.43471965 89.2970989 14.21899693 90.64643767 16 92 C9.46568357 82.21094801 2.74613789 72.87193233 -5 64 C-6.34384766 64.49886719 -6.34384766 64.49886719 -7.71484375 65.0078125 C-12.12036528 66.33837429 -15.56999484 66.1300198 -20 65 C-23.83205432 62.6674452 -26.21874203 60.12501845 -28 56 C-28.54067915 51.13388763 -28.54236245 49.02661464 -26.25 44.6875 C-22.50353066 40.21255051 -19.58771014 38.2441236 -13.6875 37.6875 C-8.24856718 38.14842651 -5.54012611 40.58146279 -1.625 44.1875 C0.66005668 48.1424058 0.46631685 51.53558947 0 56 C-0.268125 56.80050781 -0.53625 57.60101563 -0.8125 58.42578125 C-1.28632139 61.19484543 -1.28632139 61.19484543 0.88671875 63.69921875 C1.80895662 64.70583554 2.74351916 65.70124435 3.6875 66.6875 C10.74435438 74.48425135 16.33678519 83.16586217 22 92 C18.12410174 73.12209555 12.57520289 55.12356293 5.89575195 37.04858398 C5.33247192 35.52019897 5.33247192 35.52019897 4.7578125 33.9609375 C4.4189502 33.05134277 4.08008789 32.14174805 3.73095703 31.20458984 C3 29 3 29 3 27 C1.515 27.495 1.515 27.495 0 28 C-6.72400035 28.78446671 -6.72400035 28.78446671 -10.0078125 26.765625 C-16.64712936 21.15415217 -16.64712936 21.15415217 -17.3359375 16.94921875 C-17.43097812 11.44636711 -16.78275081 8.28048118 -13 4 C-8.638806 0.31721396 -5.68625269 -0.79807055 0 0 Z " fill="#175F34" transform="translate(109,48)"/>
<path d="M0 0 C3.24394395 2.09054166 4.93384184 3.41646409 6.8125 6.8125 C7.64161185 11.87177436 7.39937773 15.65970445 5.0625 20.25 C1.30297014 24.53168679 1.30297014 24.53168679 -1.1875 25.8125 C-3.52039735 25.85760435 -5.8546764 25.86126983 -8.1875 25.8125 C-8.39246094 26.92109375 -8.59742188 28.0296875 -8.80859375 29.171875 C-9.08066462 30.63542867 -9.35280362 32.09896967 -9.625 33.5625 C-9.75970703 34.29210937 -9.89441406 35.02171875 -10.03320312 35.7734375 C-10.66209267 39.14796675 -11.33072173 42.48884694 -12.1875 45.8125 C-11.61902344 45.74289063 -11.05054688 45.67328125 -10.46484375 45.6015625 C-5.72548003 45.26925319 -2.90110696 45.49815838 0.8125 48.625 C4.15933244 51.76265541 4.97648163 54.59909795 5.125 59.125 C5.06492941 63.74292698 3.91693184 66.28855034 0.8125 69.8125 C-3.3227453 73.25853775 -7.0478661 73.27028116 -12.1875 72.8125 C-13.86203799 72.521276 -15.53300895 72.20179201 -17.1875 71.8125 C-17.8475 71.8125 -18.5075 71.8125 -19.1875 71.8125 C-21.7623433 66.01910258 -23.70115236 60.16585661 -22.1875 53.8125 C-20.93373649 52.41328354 -19.67993643 51.01409977 -18.42578125 49.61523438 C-15.98524019 46.06220693 -15.61575775 41.80658015 -14.9375 37.625 C-14.62100799 35.83962771 -14.3033499 34.05446162 -13.984375 32.26953125 C-13.85385742 31.48553955 -13.72333984 30.70154785 -13.58886719 29.89379883 C-13.1875 27.8125 -13.1875 27.8125 -12.1875 24.8125 C-12.765 24.585625 -13.3425 24.35875 -13.9375 24.125 C-17.05124625 22.30864802 -18.37654151 20.98167736 -20.1875 17.8125 C-20.92376974 13.381372 -21.2248686 8.96376439 -19.234375 4.8359375 C-14.26906096 -1.54354826 -7.40906614 -2.76024033 0 0 Z " fill="#145F32" transform="translate(161.1875,49.1875)"/>
<path d="M0 0 C3.4812511 2.32083406 4.99212405 4.09421919 6.8125 7.875 C7.49012689 12.19201627 7.25135085 15.72911168 5.6875 19.8125 C1.96192275 23.91063498 -3.68513597 24.45584947 -9 24.9765625 C-12.57981854 24.81035664 -14.59184321 23.21109111 -17.1875 20.875 C-17.5175 19.885 -17.8475 18.895 -18.1875 17.875 C-18.8475 17.545 -19.5075 17.215 -20.1875 16.875 C-21.04760847 7.20355814 -21.04760847 7.20355814 -18 3.375 C-12.48945859 -1.52325903 -7.05336099 -2.48942153 0 0 Z " fill="#145F32" transform="translate(204.1875,80.125)"/>
<path d="M0 0 C2 1 2 1 2.75 2.9375 C3.8971797 5.2499063 3.8971797 5.2499063 6.6875 6.3125 C11.68300756 7.34930346 16.14659515 6.35895336 21 5 C20 8 20 8 18 9 C16.2104531 9.09657872 14.41714466 9.12980468 12.625 9.125 C11.66851562 9.12757812 10.71203125 9.13015625 9.7265625 9.1328125 C7 9 7 9 5.0234375 8.19921875 C2.73502785 7.75878642 2.73502785 7.75878642 0.25 9.82421875 C-0.84697168 10.76293878 -1.92920589 11.71902587 -3 12.6875 C-3.59449951 13.21206787 -4.18899902 13.73663574 -4.80151367 14.27709961 C-16.78278041 25.02702999 -28.76431998 36.37236275 -38.5390625 49.19921875 C-40 51 -40 51 -42 52 C-43.89873418 45.5443038 -43.89873418 45.5443038 -44.5 42.3125 C-44.87518477 40.00158176 -44.87518477 40.00158176 -46.046875 38.19921875 C-47.25991716 35.40027311 -47.06519108 33.51919881 -46.75 30.5 C-46.66234375 29.5615625 -46.5746875 28.623125 -46.484375 27.65625 C-46.01516293 25.08315158 -45.29697085 23.25375263 -44 21 C-43.67 21.99 -43.34 22.98 -43 24 C-42.071875 23.79375 -41.14375 23.5875 -40.1875 23.375 C-37 23 -37 23 -34 25 C-34.19335938 25.64066406 -34.38671875 26.28132813 -34.5859375 26.94140625 C-34.84632813 27.80636719 -35.10671875 28.67132813 -35.375 29.5625 C-35.63023437 30.40941406 -35.88546875 31.25632813 -36.1484375 32.12890625 C-37.12241452 35.41272786 -38.06332964 38.70536381 -39 42 C-38.15179688 41.07960937 -37.30359375 40.15921875 -36.4296875 39.2109375 C-13.57387773 14.50284316 -13.57387773 14.50284316 -1.9140625 5.8671875 C-1.28242188 5.25101562 -0.65078125 4.63484375 0 4 C0 2.68 0 1.36 0 0 Z " fill="#27623E" transform="translate(185,97)"/>
<path d="M0 0 C0.66 0.66 1.32 1.32 2 2 C1.8910232 3.5428821 1.76331377 5.08447074 1.625 6.625 C1.71505818 9.41208548 1.71505818 9.41208548 3 12 C7.26770698 14.97902683 11.88889397 16.89245746 16.65478516 18.94628906 C20.59148372 20.71505765 24.35560515 22.77751742 28.125 24.875 C28.87692627 25.29233398 29.62885254 25.70966797 30.40356445 26.13964844 C37.6604282 30.24508127 44.34972775 34.98645279 51 40 C51.87140625 40.64710938 52.7428125 41.29421875 53.640625 41.9609375 C55.43471965 43.2970989 57.21899693 44.64643767 59 46 C53.20842272 37.37217366 47.43134653 28.96964848 40.58203125 21.13671875 C39 19 39 19 39 16 C39.33 15.01 39.66 14.02 40 13 C40.86625 14.10794922 40.86625 14.10794922 41.75 15.23828125 C43.74122533 17.68237206 45.81685673 19.91752717 48 22.1875 C52.35225482 26.97570689 55.97336777 32.12109143 59.5625 37.5 C60.3678418 38.70305786 60.3678418 38.70305786 61.18945312 39.93041992 C65 45.73605319 65 45.73605319 65 48 C63.35 48.33 61.7 48.66 60 49 C59.67 50.32 59.34 51.64 59 53 C58.28199219 52.34515625 57.56398437 51.6903125 56.82421875 51.015625 C44.10872972 39.69266475 29.74235917 31.27786407 14.75 23.3125 C13.78594238 22.79502197 12.82188477 22.27754395 11.82861328 21.74438477 C6.81173224 19.14083749 2.66696715 17.33657402 -3 17 C-3.33 16.01 -3.66 15.02 -4 14 C-2.68 14 -1.36 14 0 14 C0 9.38 0 4.76 0 0 Z " fill="#286340" transform="translate(66,94)"/>
<path d="M0 0 C6.625 -0.25 6.625 -0.25 10 2 C9.34 2 8.68 2 8 2 C8.495 2.99 8.495 2.99 9 4 C9.99 4.33 10.98 4.66 12 5 C12 5.66 12 6.32 12 7 C12.66 7 13.32 7 14 7 C14.495 8.485 14.495 8.485 15 10 C14.01 10.66 13.02 11.32 12 12 C12.99 12.66 13.98 13.32 15 14 C14.51893799 14.4139502 14.03787598 14.82790039 13.54223633 15.25439453 C8.45720606 19.6624437 3.55401467 24.22836809 -1.3125 28.875 C-7.66648566 34.89714341 -14.12818281 40.57323967 -21 46 C-23.06865991 47.68008284 -25.12759624 49.37165143 -27.1875 51.0625 C-28.79166667 52.375 -30.39583333 53.6875 -32 55 C-33.65 53.68 -35.3 52.36 -37 51 C-35.98808594 50.45988281 -34.97617188 49.91976562 -33.93359375 49.36328125 C-29.90382042 47.05809284 -26.52890921 44.25624337 -23.0625 41.1875 C-22.44842285 40.6519751 -21.8343457 40.1164502 -21.20166016 39.56469727 C-19.99471437 38.51113351 -18.78986783 37.45515877 -17.58740234 36.39648438 C-16.31038966 35.27305888 -15.02556376 34.15851792 -13.73828125 33.046875 C-1.14894704 22.2361433 -1.14894704 22.2361433 10 10 C8.35 10 6.7 10 5 10 C5 9.01 5 8.02 5 7 C2.525 6.505 2.525 6.505 0 6 C0 5.34 0 4.68 0 4 C1.65 3.67 3.3 3.34 5 3 C5 2.34 5 1.68 5 1 C3.35 1 1.7 1 0 1 C0 0.67 0 0.34 0 0 Z " fill="#26623F" transform="translate(117,149)"/>
<path d="M0 0 C0.969375 0.515625 1.93875 1.03125 2.9375 1.5625 C6.81405167 3.24864239 9.77872013 3.00280467 13.88671875 2.32421875 C16 2 16 2 20 2 C21.92474226 3.85199609 23.52982543 5.61694629 25.1875 7.6875 C25.66292236 8.26604736 26.13834473 8.84459473 26.62817383 9.44067383 C40 25.9488537 40 25.9488537 40 30 C36.74865259 28.58602336 34.08457377 26.61842462 31.27905273 24.47070312 C20.30859956 16.08178971 8.41720595 9.03972897 -4 3 C-2.68 2.67 -1.36 2.34 0 2 C0 1.34 0 0.68 0 0 Z " fill="#EFF8F2" transform="translate(85,110)"/>
<path d="M0 0 C10.1963902 15.2945853 20.8338111 46.51718731 20 65 C20.66 65 21.32 65 22 65 C22 65.66 22 66.32 22 67 C19.525 67.99 19.525 67.99 17 69 C16.81002441 68.21278564 16.62004883 67.42557129 16.42431641 66.61450195 C11.88202404 47.97492893 6.55850983 29.89132917 0.01806641 11.85131836 C-1.03065636 8.91414012 -2.0235808 5.96191469 -3 3 C-2.01 3 -1.02 3 0 3 C0 2.01 0 1.02 0 0 Z " fill="#286441" transform="translate(115,73)"/>
<path d="M0 0 C0.33 0 0.66 0 1 0 C1.41277905 28.15153143 1.41277905 28.15153143 -1 40 C-1.66 40 -2.32 40 -3 40 C-3.33 40.99 -3.66 41.98 -4 43 C-4.33 43 -4.66 43 -5 43 C-5.09796875 42.40832031 -5.1959375 41.81664062 -5.296875 41.20703125 C-6.30248072 35.86315569 -6.30248072 35.86315569 -9.1875 31.3125 C-11 29 -11 29 -10.859375 26.45703125 C-9.72018806 21.87439286 -7.94142497 17.6981902 -6.0625 13.375 C-5.70220703 12.529375 -5.34191406 11.68375 -4.97070312 10.8125 C-3.40455169 7.1552624 -1.8060971 3.54609915 0 0 Z " fill="#EBF6EF" transform="translate(135,164)"/>
<path d="M0 0 C0.33 0.66 0.66 1.32 1 2 C0.21142578 4.30664062 0.21142578 4.30664062 -1.0546875 7.15625 C-1.72951172 8.68958984 -1.72951172 8.68958984 -2.41796875 10.25390625 C-3.13919922 11.86072266 -3.13919922 11.86072266 -3.875 13.5 C-4.34808594 14.57121094 -4.82117188 15.64242187 -5.30859375 16.74609375 C-8.66852679 24.33705357 -8.66852679 24.33705357 -10 27 C-12.6171875 27.73828125 -12.6171875 27.73828125 -15.875 28.3125 C-16.94492188 28.51488281 -18.01484375 28.71726563 -19.1171875 28.92578125 C-22 29 -22 29 -23.7578125 27.60546875 C-24.37269531 26.81076172 -24.37269531 26.81076172 -25 26 C-25.66 25.67 -26.32 25.34 -27 25 C-25.20890208 23.35354401 -23.41726286 21.70768733 -21.625 20.0625 C-21.08351318 19.56540527 -20.54202637 19.06831055 -19.98413086 18.55615234 C-16.53011115 15.3898412 -13.05508284 12.24883352 -9.5625 9.125 C-6.27075472 6.17250061 -3.07478268 3.17727544 0 0 Z " fill="#F0F9F3" transform="translate(130,163)"/>
<path d="M0 0 C0.66 0.33 1.32 0.66 2 1 C2 1.66 2 2.32 2 3 C3.3921875 2.690625 3.3921875 2.690625 4.8125 2.375 C8 2 8 2 11 4 C9.07443364 10.85618326 6.7527517 17.43252132 4 24 C5.98 22.68 7.96 21.36 10 20 C9.55520961 25.04095775 7.33845847 27.41115715 4 31 C3.67 31 3.34 31 3 31 C1.10126582 24.5443038 1.10126582 24.5443038 0.5 21.3125 C0.1252979 19.00094005 0.1252979 19.00094005 -1.05078125 17.19921875 C-2.26311532 14.39039537 -2.03220661 12.52345079 -1.6875 9.5 C-1.53861328 8.09234375 -1.53861328 8.09234375 -1.38671875 6.65625 C-1.05479925 4.3763989 -0.61213229 2.21832557 0 0 Z " fill="#23633D" transform="translate(140,118)"/>
<path d="M0 0 C1.57421297 0.01006405 3.14843226 0.01918377 4.72265625 0.02734375 C8.52359821 0.04905349 12.32422599 0.08338802 16.125 0.125 C15.465 1.445 14.805 2.765 14.125 4.125 C13.3407666 4.14481934 12.5565332 4.16463867 11.74853516 4.18505859 C-3.21284061 4.58160406 -18.03842334 5.07926051 -32.875 7.125 C-32.545 6.135 -32.215 5.145 -31.875 4.125 C-31.215 4.125 -30.555 4.125 -29.875 4.125 C-30.535 3.465 -31.195 2.805 -31.875 2.125 C-21.14730048 0.21617964 -10.85638223 -0.12255341 0 0 Z " fill="#1C5933" transform="translate(185.875,144.875)"/>
<path d="M0 0 C0.33 0 0.66 0 1 0 C2.28690165 3.36981142 3.06639927 6.37677033 3 10 C0.94601233 13.5560791 -1.91979936 16.0115447 -5 18.6875 C-6.54373614 20.10582374 -8.08543573 21.52636761 -9.625 22.94921875 C-10.36878906 23.62259277 -11.11257812 24.2959668 -11.87890625 24.98974609 C-14.84733405 27.80305578 -17.41239526 30.83598971 -20 34 C-21.67987487 28.96037539 -18.91798762 24.06244985 -16.8828125 19.34765625 C-15 16 -15 16 -12.9921875 14.74609375 C-11.01141494 14.38834966 -9.00375231 14.19083355 -7 14 C-2.26676136 10.60441576 -1.23885573 7.28824371 -0.26171875 1.79296875 C-0.17535156 1.20128906 -0.08898437 0.60960938 0 0 Z " fill="#EAF6ED" transform="translate(166,106)"/>
<path d="M0 0 C3.04771512 2.03181008 4.66764631 3.57744005 6 7 C6.12492797 13.1214704 4.62799709 19.13921047 3 25 C5.97 25 8.94 25 12 25 C12 25.33 12 25.66 12 26 C11.41992188 26.08636719 10.83984375 26.17273438 10.2421875 26.26171875 C3.65022931 27.447401 -0.38620537 29.31692575 -4.375 34.9375 C-5.20411968 37.67359496 -5.12908336 40.16016615 -5 43 C-5.66 43 -6.32 43 -7 43 C-7.13687714 41.46089264 -7.23284005 39.91812705 -7.3125 38.375 C-7.37050781 37.51648438 -7.42851562 36.65796875 -7.48828125 35.7734375 C-6.90767677 32.47560404 -5.44181679 31.20463944 -3.24487305 28.78515625 C-0.78266656 25.25433573 -0.42689314 20.98566705 0.25 16.8125 C0.56649201 15.02712771 0.8841501 13.24196162 1.203125 11.45703125 C1.33364258 10.67303955 1.46416016 9.88904785 1.59863281 9.08129883 C2 7 2 7 3 4 C1.68 3.34 0.36 2.68 -1 2 C-0.67 1.34 -0.34 0.68 0 0 Z " fill="#195D35" transform="translate(146,70)"/>
<path d="M0 0 C0 0.33 0 0.66 0 1 C-6.29433739 1.64557307 -12.48270049 2.04576339 -18.8125 1.9375 C-26.3562281 1.86164128 -33.56085505 2.8330753 -41 4 C-41 4.66 -41 5.32 -41 6 C-39.4221875 5.9071875 -39.4221875 5.9071875 -37.8125 5.8125 C-33.79785599 6.00994151 -32.0716772 6.47038348 -29 9 C-28.1875 11.1875 -28.1875 11.1875 -28 13 C-28.99 13.495 -28.99 13.495 -30 14 C-30.8971875 12.7934375 -30.8971875 12.7934375 -31.8125 11.5625 C-33.80947276 8.77672016 -33.80947276 8.77672016 -37 8 C-38.64371491 7.90670066 -40.29114677 7.87004856 -41.9375 7.875 C-42.79214844 7.87242187 -43.64679688 7.86984375 -44.52734375 7.8671875 C-46.97223511 7.91043445 -46.97223511 7.91043445 -49.14453125 8.58984375 C-51 9 -51 9 -53.75 7.6875 C-54.4925 7.130625 -55.235 6.57375 -56 6 C-56 5.34 -56 4.68 -56 4 C-37.12235581 0.37209598 -19.13215187 -0.51870276 0 0 Z " fill="#EAF8F1" transform="translate(201,149)"/>
<path d="M0 0 C0.99 0 1.98 0 3 0 C4.75507396 2.0049489 6.31832789 3.97464213 7.875 6.125 C12.73668975 12.72344925 12.73668975 12.72344925 18 19 C18.66 19 19.32 19 20 19 C19.60196439 21.88575819 19.20990931 22.82189513 16.9375 24.75 C16.298125 25.1625 15.65875 25.575 15 26 C14.90017822 25.42113037 14.80035645 24.84226074 14.69750977 24.24584961 C13.86682738 21.57120932 12.68763793 20.16262183 10.83984375 18.06640625 C10.21142578 17.33486328 9.58300781 16.60332031 8.93554688 15.84960938 C7.6037553 14.32514414 6.26780935 12.80429825 4.92773438 11.28710938 C4.30060547 10.55427734 3.67347656 9.82144531 3.02734375 9.06640625 C2.44718506 8.40584229 1.86702637 7.74527832 1.26928711 7.06469727 C-0.28175429 4.54168186 -0.24515483 2.9099088 0 0 Z " fill="#21603C" transform="translate(160,183)"/>
<path d="M0 0 C6.625 -0.25 6.625 -0.25 10 2 C9.34 2 8.68 2 8 2 C8.33 2.66 8.66 3.32 9 4 C9.99 4.33 10.98 4.66 12 5 C12 5.66 12 6.32 12 7 C12.66 7 13.32 7 14 7 C14.33 7.99 14.66 8.98 15 10 C14.01 10.66 13.02 11.32 12 12 C12.99 12.66 13.98 13.32 15 14 C13.71064081 15.14842923 12.41843421 16.29366227 11.125 17.4375 C10.40570313 18.07558594 9.68640625 18.71367187 8.9453125 19.37109375 C7 21 7 21 5 22 C4.67 21.01 4.34 20.02 4 19 C4.804375 18.2575 5.60875 17.515 6.4375 16.75 C8.76988591 14.24695171 9.63534394 13.2819045 10 10 C8.35 10 6.7 10 5 10 C5 9.01 5 8.02 5 7 C3.35 6.67 1.7 6.34 0 6 C0 5.34 0 4.68 0 4 C1.65 3.67 3.3 3.34 5 3 C5 2.34 5 1.68 5 1 C3.35 1 1.7 1 0 1 C0 0.67 0 0.34 0 0 Z " fill="#1C6135" transform="translate(117,149)"/>
<path d="M0 0 C0.7282448 4.99367864 1.38487182 9.99109914 2 15 C1.01 15.495 1.01 15.495 0 16 C-1.20272819 13.59454362 -1.10071472 12.05003047 -1.0625 9.375 C-1.05347656 8.55773437 -1.04445313 7.74046875 -1.03515625 6.8984375 C-1.02355469 6.27195313 -1.01195313 5.64546875 -1 5 C-1.845625 5.13277344 -2.69125 5.26554688 -3.5625 5.40234375 C-9.700297 6.35788715 -15.83070189 7.27420022 -22 8 C-22.99 6.68 -23.98 5.36 -25 4 C-5.67924528 0 -5.67924528 0 0 0 Z " fill="#255F3D" transform="translate(92,150)"/>
<path d="M0 0 C0.99 0.33 1.98 0.66 3 1 C2.66005005 1.84594727 2.66005005 1.84594727 2.31323242 2.70898438 C1.2703809 5.30561289 0.22893259 7.90280208 -0.8125 10.5 C-1.16892578 11.386875 -1.52535156 12.27375 -1.89257812 13.1875 C-3.99547593 18.43509819 -6.03672791 23.69854602 -8 29 C-8.1546875 28.0409375 -8.1546875 28.0409375 -8.3125 27.0625 C-8.539375 26.381875 -8.76625 25.70125 -9 25 C-9.99 24.67 -10.98 24.34 -12 24 C-10.5801469 20.51336794 -9.13623561 17.03721935 -7.6875 13.5625 C-7.28337891 12.56927734 -6.87925781 11.57605469 -6.46289062 10.55273438 C-6.06650391 9.60849609 -5.67011719 8.66425781 -5.26171875 7.69140625 C-4.90037842 6.81685791 -4.53903809 5.94230957 -4.16674805 5.04125977 C-3 3 -3 3 0 2 C0 1.34 0 0.68 0 0 Z " fill="#286441" transform="translate(132,164)"/>
<path d="M0 0 C-1.63759253 4.16933068 -4.6839587 6.9793547 -7.8125 10.0625 C-8.33392578 10.59166016 -8.85535156 11.12082031 -9.39257812 11.66601562 C-12.38178748 14.64029759 -15.24593829 16.9945955 -19 19 C-19 17.68 -19 16.36 -19 15 C-19.99 15.33 -20.98 15.66 -22 16 C-22 15.34 -22 14.68 -22 14 C-21.38511719 13.76925781 -20.77023438 13.53851563 -20.13671875 13.30078125 C-14.96689894 11.25751587 -14.96689894 11.25751587 -11 7.5 C-9.95468165 5.08140518 -9.95468165 5.08140518 -9.5 2.75 C-9.335 2.1725 -9.17 1.595 -9 1 C-5.8035914 -0.06546953 -3.34252724 -0.07427838 0 0 Z " fill="#DFF1E8" transform="translate(127,159)"/>
<path d="M0 0 C0.66 0.33 1.32 0.66 2 1 C2 1.66 2 2.32 2 3 C3.32 2.67 4.64 2.34 6 2 C7.3274855 5.98245651 5.99907829 8.44789543 4.5625 12.1875 C4.31951172 12.84169922 4.07652344 13.49589844 3.82617188 14.16992188 C3.2256707 15.78303286 2.61390797 17.3919435 2 19 C-0.01171875 17.34375 -0.01171875 17.34375 -2 15 C-2.20703125 12.34375 -2.20703125 12.34375 -1.8125 9.5 C-1.69519531 8.5615625 -1.57789063 7.623125 -1.45703125 6.65625 C-1.06829733 4.39694174 -0.59973829 2.21120901 0 0 Z " fill="#27623D" transform="translate(140,118)"/>
<path d="M0 0 C2.16653205 3.76447198 3.13943748 7.82288441 4.1875 12 C4.37763672 12.7115625 4.56777344 13.423125 4.76367188 14.15625 C6.39167253 20.59616401 6.39167253 20.59616401 5 24 C3.53914338 21.7516034 2.08124864 19.50137827 0.625 17.25 C0.2125 16.61578125 -0.2 15.9815625 -0.625 15.328125 C-2.58941624 12.28644824 -4.48420908 9.29809453 -6 6 C-4.35 5.67 -2.7 5.34 -1 5 C-0.67 3.35 -0.34 1.7 0 0 Z " fill="#E9F6EF" transform="translate(126,118)"/>
<path d="M0 0 C2.7839183 1.39195915 2.97898997 3.15575779 4 6 C3.67 6 3.34 6 3 6 C2.67 15.24 2.34 24.48 2 34 C1.67 34 1.34 34 1 34 C1 26.08 1 18.16 1 10 C0.34 10 -0.32 10 -1 10 C-0.98952637 10.70608398 -0.97905273 11.41216797 -0.96826172 12.13964844 C-0.9266521 15.34306266 -0.90065796 18.54641996 -0.875 21.75 C-0.85824219 22.86117187 -0.84148437 23.97234375 -0.82421875 25.1171875 C-0.81777344 26.18710938 -0.81132812 27.25703125 -0.8046875 28.359375 C-0.79421387 29.34389648 -0.78374023 30.32841797 -0.77294922 31.34277344 C-1 34 -1 34 -3 38 C-3 27.11 -3 16.22 -3 5 C-2.01 5.33 -1.02 5.66 0 6 C-0.2784375 4.7934375 -0.2784375 4.7934375 -0.5625 3.5625 C-0.706875 2.716875 -0.85125 1.87125 -1 1 C-0.67 0.67 -0.34 0.34 0 0 Z " fill="#2E6A46" transform="translate(138,157)"/>
<path d="M0 0 C2 2 2 2 2.02734375 4.20703125 C1.99769531 5.06683594 1.96804687 5.92664063 1.9375 6.8125 C1.99566167 9.52587307 1.99566167 9.52587307 3 12 C6.42221753 14.41474227 10.01908452 15.75391443 14 17 C13.67 18.65 13.34 20.3 13 22 C12.26394531 21.6390625 11.52789062 21.278125 10.76953125 20.90625 C9.30580078 20.21015625 9.30580078 20.21015625 7.8125 19.5 C6.84957031 19.0359375 5.88664062 18.571875 4.89453125 18.09375 C2.01077307 17.00407079 0.04645139 16.77722476 -3 17 C-3.33 16.01 -3.66 15.02 -4 14 C-2.68 14 -1.36 14 0 14 C0 9.38 0 4.76 0 0 Z " fill="#2B6644" transform="translate(66,94)"/>
<path d="M0 0 C0.83834217 2.34735808 1.12473554 3.61226783 0.3515625 6.015625 C-1.33154091 8.48677105 -3.22847302 9.96972282 -5.625 11.75 C-6.44226563 12.36359375 -7.25953125 12.9771875 -8.1015625 13.609375 C-8.72804688 14.06828125 -9.35453125 14.5271875 -10 15 C-11.65 13.68 -13.3 12.36 -15 11 C-13.515 10.2265625 -13.515 10.2265625 -12 9.4375 C-7.48790921 6.88157127 -3.79216773 3.50652393 0 0 Z " fill="#2B6645" transform="translate(95,189)"/>
<path d="M0 0 C3.04831015 2.03220677 4.67525029 3.57266588 6 7 C6.046875 9.4375 6.046875 9.4375 5.75 12 C5.61851562 13.2684375 5.61851562 13.2684375 5.484375 14.5625 C4.99747499 17.01270651 4.22317883 18.8343719 3 21 C2.67 20.01 2.34 19.02 2 18 C1.34 19.98 0.68 21.96 0 24 C-1.37344385 19.60155678 -0.24307502 16.07495445 0.9375 11.75 C1.13279297 11.00492188 1.32808594 10.25984375 1.52929688 9.4921875 C2.01104198 7.65920614 2.50439225 5.82928182 3 4 C1.68 3.34 0.36 2.68 -1 2 C-0.67 1.34 -0.34 0.68 0 0 Z " fill="#2B6642" transform="translate(146,70)"/>
<path d="M0 0 C1.65 0 3.3 0 5 0 C6.96087472 3.32948524 7.3953219 6.16815612 7.6875 10 C7.77386719 11.03125 7.86023438 12.0625 7.94921875 13.125 C8 16 8 16 7.42578125 18.24609375 C7.28527344 18.82488281 7.14476563 19.40367188 7 20 C7.98028616 21.34789347 8.97971135 22.68212715 10 24 C9.67 24.99 9.34 25.98 9 27 C7.11342729 25.02139935 5.46312534 23.28203877 4 21 C4.1875 18.6875 4.1875 18.6875 5 16 C5.64896782 10.87606002 5.57694254 7.22262054 2.5 2.9375 C1.675 1.968125 0.85 0.99875 0 0 Z " fill="#EAF7F0" transform="translate(103,88)"/>
<path d="M0 0 C1.32 0 2.64 0 4 0 C4 0.99 4 1.98 4 3 C4.928125 2.649375 5.85625 2.29875 6.8125 1.9375 C12.87830711 0.20794197 19.35691696 0.88990512 25.125 3.3125 C27.20978476 5.18880628 27.71446968 6.23987354 28 9 C27.01 9.495 27.01 9.495 26 10 C25.1028125 8.7934375 25.1028125 8.7934375 24.1875 7.5625 C22.19052724 4.77672016 22.19052724 4.77672016 19 4 C17.35628509 3.90670066 15.70885323 3.87004856 14.0625 3.875 C13.20785156 3.87242187 12.35320312 3.86984375 11.47265625 3.8671875 C9.02776489 3.91043445 9.02776489 3.91043445 6.85546875 4.58984375 C5 5 5 5 2.25 3.6875 C1.5075 3.130625 0.765 2.57375 0 2 C0 1.34 0 0.68 0 0 Z " fill="#D0EAD9" transform="translate(145,153)"/>
<path d="M0 0 C0.66 0.33 1.32 0.66 2 1 C-11 14 -11 14 -12.8125 15.625 C-14.32680994 17.07561063 -14.32680994 17.07561063 -14 20 C-14.66 20 -15.32 20 -16 20 C-16.33 20.66 -16.66 21.32 -17 22 C-19.5625 22.625 -19.5625 22.625 -22 23 C-17.47008204 17.56266945 -12.65705784 12.53541069 -7.625 7.5625 C-6.88894531 6.83095703 -6.15289062 6.09941406 -5.39453125 5.34570312 C-3.59863926 3.56147277 -1.80044015 1.77963876 0 0 Z " fill="#EDFAF5" transform="translate(178,112)"/>
<path d="M0 0 C0.66 0.33 1.32 0.66 2 1 C2 2.65 2 4.3 2 6 C2.99 6.33 3.98 6.66 5 7 C5.33 10.63 5.66 14.26 6 18 C5.01 18 4.02 18 3 18 C2.30030318 15.75376301 1.61564957 13.50283586 0.9375 11.25 C0.55464844 9.99703125 0.17179687 8.7440625 -0.22265625 7.453125 C-0.92656828 4.3261992 -1.16653785 2.90533954 0 0 Z " fill="#205F39" transform="translate(126,110)"/>
<path d="M0 0 C0 0.66 0 1.32 0 2 C-0.928125 2.3403125 -0.928125 2.3403125 -1.875 2.6875 C-4.62414561 4.3855017 -4.99884086 5.99652258 -6 9 C-6.33 9.33 -6.66 9.66 -7 10 C-7.13568319 13.66344611 -7.16461426 16.50615721 -6 20 C-5.34 20.33 -4.68 20.66 -4 21 C-4.99 21.33 -5.98 21.66 -7 22 C-9.66104663 17.45404533 -10.81649531 14.26185866 -10 9 C-4.74464286 0 -4.74464286 0 0 0 Z " fill="#35694A" transform="translate(50,88)"/>
<path d="M0 0 C0.5775 0.495 1.155 0.99 1.75 1.5 C4.10400629 3.36980013 4.10400629 3.36980013 8 3 C8.66 2.34 9.32 1.68 10 1 C10.66 2.65 11.32 4.3 12 6 C10.35 6.33 8.7 6.66 7 7 C6.67 8.32 6.34 9.64 6 11 C3.69 9.02 1.38 7.04 -1 5 C-0.34 4.67 0.32 4.34 1 4 C0.67 2.68 0.34 1.36 0 0 Z " fill="#2C6644" transform="translate(119,136)"/>
<path d="M0 0 C0.66 0.33 1.32 0.66 2 1 C1.67 1.66 1.34 2.32 1 3 C1.598125 2.484375 2.19625 1.96875 2.8125 1.4375 C3.534375 0.963125 4.25625 0.48875 5 0 C5.99 0.33 6.98 0.66 8 1 C4.37 4.96 0.74 8.92 -3 13 C-4.23593891 9.29218328 -3.5678132 8.32489747 -2.0625 4.8125 C-1.68222656 3.91144531 -1.30195313 3.01039063 -0.91015625 2.08203125 C-0.60980469 1.39496094 -0.30945313 0.70789063 0 0 Z " fill="#E9F9F1" transform="translate(149,127)"/>
<path d="M0 0 C0.33 0 0.66 0 1 0 C2.27158008 3.37245152 3.11286191 6.37815886 3 10 C0.79854806 13.26566093 -1.8895577 15.61043274 -5 18 C-5.66 16.68 -6.32 15.36 -7 14 C-6.21625 13.360625 -5.4325 12.72125 -4.625 12.0625 C-1.16954724 8.67556897 -0.67709801 4.63862668 0 0 Z " fill="#D8EFE1" transform="translate(166,106)"/>
<path d="M0 0 C2.01822917 0.06510417 4.03645833 0.13020833 6.0546875 0.1953125 C5.3946875 1.5153125 4.7346875 2.8353125 4.0546875 4.1953125 C-3.2053125 4.1953125 -10.4653125 4.1953125 -17.9453125 4.1953125 C-17.9453125 3.8653125 -17.9453125 3.5353125 -17.9453125 3.1953125 C-16.95789063 3.14632812 -15.97046875 3.09734375 -14.953125 3.046875 C-13.67179688 2.97210938 -12.39046875 2.89734375 -11.0703125 2.8203125 C-9.15605469 2.71589844 -9.15605469 2.71589844 -7.203125 2.609375 C-3.73636943 2.16875619 -3.12570045 0.31382535 0 0 Z " fill="#35684A" transform="translate(195.9453125,144.8046875)"/>
<path d="M0 0 C-3.53411321 2.12046792 -6.94393835 2.53199289 -11 3 C-11 3.99 -11 4.98 -11 6 C-15.455 6.495 -15.455 6.495 -20 7 C-19.67 6.01 -19.34 5.02 -19 4 C-18.34 4 -17.68 4 -17 4 C-17.66 3.34 -18.32 2.68 -19 2 C-16.77149723 1.66225668 -14.54216533 1.3299813 -12.3125 1 C-10.45044922 0.7215625 -10.45044922 0.7215625 -8.55078125 0.4375 C-5.64113629 0.07899589 -2.92299978 -0.08942256 0 0 Z " fill="#3C7352" transform="translate(173,145)"/>
<path d="M0 0 C0.66 0.33 1.32 0.66 2 1 C1.77135767 4.96313368 1.6254271 7.29876355 -1.0625 10.3125 C-4.70790856 12.40667087 -7.8864127 13.16333818 -12 14 C-12 13.34 -12 12.68 -12 12 C-10.35546875 10.8515625 -10.35546875 10.8515625 -8.1875 9.625 C-3.8257467 7.00486551 -1.63097275 4.89291826 0 0 Z " fill="#E8F7ED" transform="translate(201,216)"/>
<path d="M0 0 C0.33 0.99 0.66 1.98 1 3 C0.34 3 -0.32 3 -1 3 C-0.67 3.99 -0.34 4.98 0 6 C0 6.99 0 7.98 0 9 C-0.99 9 -1.98 9 -3 9 C-3 11.97 -3 14.94 -3 18 C-5.67604554 13.98593168 -5.82677249 10.71982743 -5 6 C-3.57000986 3.54858834 -2.05830703 2.00684936 0 0 Z " fill="#286240" transform="translate(62,199)"/>
<path d="M0 0 C0.33 0.66 0.66 1.32 1 2 C0.67 2.66 0.34 3.32 0 4 C-0.66 4 -1.32 4 -2 4 C-2 4.99 -2 5.98 -2 7 C-2.66 7 -3.32 7 -4 7 C-4.33 7.66 -4.66 8.32 -5 9 C-5.33 9.33 -5.66 9.66 -6 10 C-6.23363881 11.84891946 -6.41303635 13.70488031 -6.5625 15.5625 C-6.64628906 16.57441406 -6.73007813 17.58632812 -6.81640625 18.62890625 C-6.87699219 19.41136719 -6.93757813 20.19382813 -7 21 C-7.99 20.67 -8.98 20.34 -10 20 C-9.67 19.67 -9.34 19.34 -9 19 C-8.97338432 17.12507317 -8.95378451 15.25004502 -8.9375 13.375 C-8.68770213 9.63695325 -8.48639813 7.62036372 -6.15625 4.6484375 C-4.17194093 2.95059558 -2.19166866 1.41784487 0 0 Z " fill="#DAECE0" transform="translate(92,197)"/>
<path d="M0 0 C7.76899463 2.93169609 7.76899463 2.93169609 10 7 C10 7.66 10 8.32 10 9 C6.84669446 8.39305845 4.81111133 7.3583335 2.25 5.4375 C1.63640625 4.98246094 1.0228125 4.52742187 0.390625 4.05859375 C-0.06828125 3.70925781 -0.5271875 3.35992187 -1 3 C-0.67 2.01 -0.34 1.02 0 0 Z " fill="#1E5E37" transform="translate(110,131)"/>
<path d="M0 0 C0.66 0 1.32 0 2 0 C2.8125 1.625 2.8125 1.625 3 4 C1.53181864 6.24609835 -0.15852858 8.02378677 -2 10 C-3.32 9.34 -4.64 8.68 -6 8 C-5.04956626 6.66102417 -4.08940853 5.32894573 -3.125 4 C-2.59132813 3.2575 -2.05765625 2.515 -1.5078125 1.75 C-1.01023437 1.1725 -0.51265625 0.595 0 0 Z " fill="#2A6444" transform="translate(102,277)"/>
<path d="M0 0 C1.33617352 0.97528737 2.6688751 1.95533319 4 2.9375 C5.11375 3.75541016 5.11375 3.75541016 6.25 4.58984375 C6.8275 5.05519531 7.405 5.52054688 8 6 C8 6.33 8 6.66 8 7 C2.72 6.67 -2.56 6.34 -8 6 C-7.67 5.34 -7.34 4.68 -7 4 C-5.02 4 -3.04 4 -1 4 C-0.67 2.68 -0.34 1.36 0 0 Z " fill="#DDF4E8" transform="translate(121,143)"/>
<path d="M0 0 C0.99 0.66 1.98 1.32 3 2 C0.00092797 2.99969068 -1.3785419 2.95058071 -4.4375 2.6875 C-6.80726748 2.562784 -6.80726748 2.562784 -9 3 C-11.63844898 5.82857071 -11.63844898 5.82857071 -13 9 C-13.66 7.68 -14.32 6.36 -15 5 C-9.87865154 0.70914048 -6.72311915 -0.3601671 0 0 Z " fill="#275E3E" transform="translate(201,79)"/>
<path d="M0 0 C1.65 0 3.3 0 5 0 C4.21625 0.763125 3.4325 1.52625 2.625 2.3125 C-1.00382535 5.92186305 -1.00382535 5.92186305 -2.1953125 10.69921875 C-2.17210937 11.68535156 -2.14890625 12.67148438 -2.125 13.6875 C-2.10695312 14.68136719 -2.08890625 15.67523438 -2.0703125 16.69921875 C-2.04710937 17.45847656 -2.02390625 18.21773437 -2 19 C-2.66 19.33 -3.32 19.66 -4 20 C-4.05397335 17.5622037 -4.09365616 15.12560315 -4.125 12.6875 C-4.14175781 11.99720703 -4.15851562 11.30691406 -4.17578125 10.59570312 C-4.21217794 6.82864604 -4.14378864 5.21568296 -2 2 C-1.34 2 -0.68 2 0 2 C0 1.34 0 0.68 0 0 Z " fill="#DFF3E7" transform="translate(60,197)"/>
<path d="M0 0 C0.33 0 0.66 0 1 0 C2.5828877 9.81818182 2.5828877 9.81818182 0 14 C-2.125 15.8125 -2.125 15.8125 -4 17 C-5.32 16.34 -6.64 15.68 -8 15 C-7.05125 14.38125 -6.1025 13.7625 -5.125 13.125 C-0.88423415 9.67437685 -0.58452885 5.19021304 0 0 Z " fill="#D9EFE2" transform="translate(211,90)"/>
<path d="M0 0 C6.625 -0.25 6.625 -0.25 10 2 C9.34 2 8.68 2 8 2 C8.33 3.32 8.66 4.64 9 6 C6.36 6.33 3.72 6.66 1 7 C0.67 6.01 0.34 5.02 0 4 C1.65 3.67 3.3 3.34 5 3 C5 2.34 5 1.68 5 1 C3.35 1 1.7 1 0 1 C0 0.67 0 0.34 0 0 Z " fill="#77A68A" transform="translate(117,149)"/>
<path d="M0 0 C2.475 0.99 2.475 0.99 5 2 C4.01 2.495 4.01 2.495 3 3 C2.34444881 5.52733235 2.34444881 5.52733235 2 8 C1.01 8.33 0.02 8.66 -1 9 C-2.5625 6.625 -2.5625 6.625 -4 4 C-3 2 -3 2 -1 1 C-0.67 0.67 -0.34 0.34 0 0 Z " fill="#4B8561" transform="translate(147,156)"/>
<path d="M0 0 C-0.99 0.33 -1.98 0.66 -3 1 C-2.67 1.99 -2.34 2.98 -2 4 C-4.64 4.33 -7.28 4.66 -10 5 C-10.99 3.68 -11.98 2.36 -13 1 C-11.58622218 0.63447197 -10.16879424 0.28304505 -8.75 -0.0625 C-7.96109375 -0.25972656 -7.1721875 -0.45695313 -6.359375 -0.66015625 C-3.89605178 -1.01497267 -2.34395868 -0.76877544 0 0 Z " fill="#296340" transform="translate(80,153)"/>
<path d="M0 0 C0.90105469 0.00902344 1.80210937 0.01804688 2.73046875 0.02734375 C3.41753906 0.03894531 4.10460937 0.05054688 4.8125 0.0625 C4.173125 0.35125 3.53375 0.64 2.875 0.9375 C0.66043921 1.89073451 0.66043921 1.89073451 -0.1875 4.0625 C-3.25 4.6875 -3.25 4.6875 -6.1875 5.0625 C-6.8475 3.7425 -7.5075 2.4225 -8.1875 1.0625 C-5.17259443 0.05753148 -3.14568308 -0.04085303 0 0 Z " fill="#22613D" transform="translate(153.1875,147.9375)"/>
<path d="M0 0 C-0.33 0.66 -0.66 1.32 -1 2 C-1.66 2 -2.32 2 -3 2 C-3 2.66 -3 3.32 -3 4 C-4.45792884 4.05399736 -5.91642712 4.09279177 -7.375 4.125 C-8.18710938 4.14820313 -8.99921875 4.17140625 -9.8359375 4.1953125 C-12 4 -12 4 -14 2 C-4.58997722 -0.29612756 -4.58997722 -0.29612756 0 0 Z " fill="#25633C" transform="translate(174,146)"/>
<path d="M0 0 C1.18613892 0.00785522 1.18613892 0.00785522 2.39624023 0.01586914 C3.67724609 0.02070313 3.67724609 0.02070313 4.98413086 0.02563477 C5.88196289 0.03401367 6.77979492 0.04239258 7.70483398 0.05102539 C8.6065332 0.05553711 9.50823242 0.06004883 10.43725586 0.06469727 C12.67234712 0.07652315 14.90730835 0.09300319 17.14233398 0.11352539 C17.47233398 1.43352539 17.80233398 2.75352539 18.14233398 4.11352539 C17.52358398 3.78352539 16.90483398 3.45352539 16.26733398 3.11352539 C10.89233506 1.39352573 5.39233291 1.39352573 0.01733398 3.11352539 C-0.60141602 3.44352539 -1.22016602 3.77352539 -1.85766602 4.11352539 C-2.18766602 3.12352539 -2.51766602 2.13352539 -2.85766602 1.11352539 C-1.85766602 0.11352539 -1.85766602 0.11352539 0 0 Z " fill="#DFF2E7" transform="translate(45.857666015625,143.886474609375)"/>
<path d="M0 0 C1 3 1 3 1 5 C0.525625 5.4125 0.05125 5.825 -0.4375 6.25 C-2.93272872 9.04465617 -3 12.35262317 -3 16 C-3.66 16 -4.32 16 -5 16 C-5.76681614 7.37757848 -5.76681614 7.37757848 -3.88671875 4 C-2.5 2.375 -2.5 2.375 0 0 Z " fill="#235E3B" transform="translate(144,97)"/>
<path d="M0 0 C0.99 0.33 1.98 0.66 3 1 C5.06145107 1.068991 7.12501401 1.08467727 9.1875 1.0625 C10.27417969 1.05347656 11.36085937 1.04445312 12.48046875 1.03515625 C13.31191406 1.02355469 14.14335937 1.01195312 15 1 C13.26929299 3.15199754 12.39380767 3.93393358 9.625 4.3984375 C8.75875 4.39070312 7.8925 4.38296875 7 4.375 C6.13375 4.38273438 5.2675 4.39046875 4.375 4.3984375 C1.60619233 3.93393358 0.73070701 3.15199754 -1 1 C-0.67 0.67 -0.34 0.34 0 0 Z " fill="#386B4D" transform="translate(181,223)"/>
<path d="M0 0 C0.33 0 0.66 0 1 0 C0.67 2.31 0.34 4.62 0 7 C0.99 7.33 1.98 7.66 3 8 C2.34 9.98 1.68 11.96 1 14 C-0.32 14 -1.64 14 -3 14 C-2.01 9.38 -1.02 4.76 0 0 Z " fill="#2F6947" transform="translate(131,214)"/>
<path d="M0 0 C0.99 0.33 1.98 0.66 3 1 C1.41078475 6.36095277 -0.18972938 11.70843973 -2 17 C-3.44715727 13.12813552 -2.5441918 10.1767672 -1.5625 6.25 C-1.27503906 5.07953125 -0.98757812 3.9090625 -0.69140625 2.703125 C-0.46324219 1.81109375 -0.23507813 0.9190625 0 0 Z " fill="#CCECD9" transform="translate(144,120)"/>
<path d="M0 0 C2.15973378 3.23960066 2.75921963 5.14751405 3 9 C2.01 9.99 1.02 10.98 0 12 C-0.99 9.03 -1.98 6.06 -3 3 C-2.01 3 -1.02 3 0 3 C0 2.01 0 1.02 0 0 Z " fill="#2B6744" transform="translate(115,73)"/>
<path d="M0 0 C3.0625 2.0625 3.0625 2.0625 5 4 C-1.51790634 3.24793388 -1.51790634 3.24793388 -4.1875 1.875 C-6.01148662 0.77957388 -6.01148662 0.77957388 -8.25 1.375 C-9.11625 1.684375 -9.11625 1.684375 -10 2 C-10.33 1.34 -10.66 0.68 -11 0 C-7.51477337 -1.74261331 -3.70586447 -0.85618248 0 0 Z " fill="#336A49" transform="translate(110,146)"/>
<path d="M0 0 C0.66 0 1.32 0 2 0 C0.98130536 2.19411153 0.02435794 3.97174479 -1.5625 5.8125 C-3.50945189 8.77525287 -3.66490689 11.5150317 -4 15 C-5.64826111 12.03312999 -6.44271087 9.34373475 -7 6 C-6.01 5.67 -5.02 5.34 -4 5 C-3.67 4.34 -3.34 3.68 -3 3 C-2.34 3 -1.68 3 -1 3 C-0.67 2.01 -0.34 1.02 0 0 Z " fill="#D9EEE1" transform="translate(143,95)"/>
<path d="M0 0 C2.875 0.1875 2.875 0.1875 6 1 C7.25 3.5 7.25 3.5 8 6 C8.66 6.33 9.32 6.66 10 7 C9.01 8.32 8.02 9.64 7 11 C6.38125 9.6696875 6.38125 9.6696875 5.75 8.3125 C4.09872712 5.18687634 2.28668741 2.68094386 0 0 Z " fill="#E5F6ED" transform="translate(61,88)"/>
<path d="M0 0 C0.99 0.33 1.98 0.66 3 1 C2.34 2.65 1.68 4.3 1 6 C0.34 6 -0.32 6 -1 6 C-1 7.98 -1 9.96 -1 12 C-1.99 12.495 -1.99 12.495 -3 13 C-3.27429625 7.60550707 -3.36055646 4.48074195 0 0 Z " fill="#2C6644" transform="translate(43,149)"/>
<path d="M0 0 C0.680625 0.33 1.36125 0.66 2.0625 1 C6.72346785 2.58671246 11.31018938 2.5007394 16 1 C15.3125 2.9375 15.3125 2.9375 14 5 C9.69202107 6.72319157 6.20383955 5.66567227 2 4 C0.5625 1.875 0.5625 1.875 0 0 Z " fill="#E9F6EE" transform="translate(46,112)"/>
<path d="M0 0 C1.65 0.33 3.3 0.66 5 1 C1.83047153 4.26008643 -1.39937989 7.22237877 -5 10 C-5.33 9.01 -5.66 8.02 -6 7 C-5.195625 6.21625 -4.39125 5.4325 -3.5625 4.625 C-1.01309583 2.28017144 -1.01309583 2.28017144 0 0 Z " fill="#32704B" transform="translate(127,161)"/>
<path d="M0 0 C0.99 0.33 1.98 0.66 3 1 C2.40844669 2.31823302 1.80128537 3.62947051 1.1875 4.9375 C0.68283203 6.03384766 0.68283203 6.03384766 0.16796875 7.15234375 C-1 9 -1 9 -4 10 C-3.38461538 3.47692308 -3.38461538 3.47692308 -1.4375 1.0625 C-0.7259375 0.5365625 -0.7259375 0.5365625 0 0 Z " fill="#28603F" transform="translate(206,137)"/>
<path d="M0 0 C0.33 0.66 0.66 1.32 1 2 C1.66 2.33 2.32 2.66 3 3 C3 3.66 3 4.32 3 5 C2.0409375 5.8971875 2.0409375 5.8971875 1.0625 6.8125 C-1.25174456 9.26700181 -1.63391473 10.70523261 -2 14 C-2.33 14 -2.66 14 -3 14 C-3.32374517 8.49633208 -3.53286034 4.56327794 0 0 Z M0 2 C1 4 1 4 1 4 Z " fill="#2B6844" transform="translate(105,194)"/>
<path d="M0 0 C4.8333472 -0.08333357 9.23692563 0.04738513 14 1 C14 1.99 14 2.98 14 4 C13.484375 3.835 12.96875 3.67 12.4375 3.5 C7.92291602 2.57393149 3.40636279 2.58996391 -1 4 C-0.67 2.68 -0.34 1.36 0 0 Z " fill="#DFF2E6" transform="translate(89,84)"/>
<path d="M0 0 C4.31392226 0.4793247 6.16569547 1.7457985 9 5 C8.01 5.99 7.02 6.98 6 8 C3.87961365 5.38485683 1.86908256 2.80362384 0 0 Z " fill="#E9F8EE" transform="translate(223,136)"/>
<path d="M0 0 C2.56616632 3.84924948 2.55097676 6.4349304 3 11 C1.02 11.99 1.02 11.99 -1 13 C-1.33 11.02 -1.66 9.04 -2 7 C-1.34 6.67 -0.68 6.34 0 6 C0 4.02 0 2.04 0 0 Z " fill="#326948" transform="translate(131,121)"/>
<path d="M0 0 C2.0625 1.6875 2.0625 1.6875 4 4 C3.75 6.75 3.75 6.75 3 9 C2.34 9 1.68 9 1 9 C-1.09230769 4.56923077 -1.09230769 4.56923077 -0.625 1.6875 C-0.41875 1.130625 -0.2125 0.57375 0 0 Z " fill="#1B5F38" transform="translate(120,92)"/>
<path d="M0 0 C0.66 0 1.32 0 2 0 C2.25 7.625 2.25 7.625 0 11 C-0.66 10.67 -1.32 10.34 -2 10 C-1.34 6.7 -0.68 3.4 0 0 Z " fill="#195B37" transform="translate(133,211)"/>
<path d="M0 0 C4.875 1.875 4.875 1.875 6 3 C6.04063832 4.66617115 6.042721 6.33388095 6 8 C3.5625 6.8125 3.5625 6.8125 1 5 C0.1875 2.3125 0.1875 2.3125 0 0 Z " fill="#1D5F38" transform="translate(122,132)"/>
<path d="M0 0 C0.66 0.33 1.32 0.66 2 1 C1.45730469 1.53109375 0.91460937 2.0621875 0.35546875 2.609375 C-0.71767578 3.66898437 -0.71767578 3.66898437 -1.8125 4.75 C-2.87404297 5.79414062 -2.87404297 5.79414062 -3.95703125 6.859375 C-6.03281493 8.93721763 -6.03281493 8.93721763 -7.63671875 11.265625 C-8.08660156 11.83796875 -8.53648437 12.4103125 -9 13 C-9.66 13 -10.32 13 -11 13 C-9.46356148 9.31930113 -7.21849055 7.01224796 -4.375 4.25 C-3.55773437 3.45078125 -2.74046875 2.6515625 -1.8984375 1.828125 C-0.95871094 0.92320313 -0.95871094 0.92320313 0 0 Z " fill="#E6F5ED" transform="translate(178,112)"/>
<path d="M0 0 C0.33 0 0.66 0 1 0 C1.07347656 1.17369141 1.07347656 1.17369141 1.1484375 2.37109375 C1.22320312 3.38300781 1.29796875 4.39492187 1.375 5.4375 C1.44460937 6.44683594 1.51421875 7.45617187 1.5859375 8.49609375 C1.72257813 9.32238281 1.85921875 10.14867188 2 11 C2.66 11.33 3.32 11.66 4 12 C2.02 12 0.04 12 -2 12 C-1 3.42857143 -1 3.42857143 0 0 Z " fill="#C6DFD1" transform="translate(151,83)"/>
<path d="M0 0 C5.23890086 -0.31433405 8.52833673 0.19221144 13 3 C13.99 4.485 13.99 4.485 15 6 C10.65866511 5.50666649 8.40883973 4.63910173 5 2 C2.35065178 1.28566879 2.35065178 1.28566879 0 1 C0 0.67 0 0.34 0 0 Z " fill="#245F3D" transform="translate(151,48)"/>
<path d="M0 0 C5.70035501 -0.4560284 8.54784247 0.39587248 13 4 C13.33 4.66 13.66 5.32 14 6 C12.68 6 11.36 6 10 6 C10 5.01 10 4.02 10 3 C8.081875 2.814375 8.081875 2.814375 6.125 2.625 C2.25 2.25 2.25 2.25 0 0 Z " fill="#255E3D" transform="translate(92,86)"/>
<path d="M0 0 C0.99 0.66 1.98 1.32 3 2 C-1.50983576 4.25491788 -5.05423265 4.32431261 -10 4 C-10.66 3.34 -11.32 2.68 -12 2 C-10 1 -10 1 -7.125 1.5625 C-3.8177538 2.02551447 -2.72817192 1.78380472 0 0 Z " fill="#2F6445" transform="translate(110,169)"/>
<path d="M0 0 C4.22460725 3.66873787 5.9772021 6.47689134 7 12 C6.67 12.99 6.34 13.98 6 15 C5.67 15 5.34 15 5 15 C5 12.69 5 10.38 5 8 C4.34 8 3.68 8 3 8 C0.95830515 5.09451118 0 3.59857954 0 0 Z " fill="#D3EADB" transform="translate(140,162)"/>
<path d="M0 0 C0.66 0.99 1.32 1.98 2 3 C-2.82142857 9.29464286 -2.82142857 9.29464286 -7 10 C-6.02223933 8.51990357 -5.0427506 7.04094856 -4.0625 5.5625 C-3.51722656 4.73878906 -2.97195312 3.91507812 -2.41015625 3.06640625 C-1 1 -1 1 0 0 Z " fill="#DCEEE0" transform="translate(109,274)"/>
<path d="M0 0 C0.99 0.66 1.98 1.32 3 2 C-0.21232125 3.07077375 -2.63937807 3 -6 3 C-6.99 3.33 -7.98 3.66 -9 4 C-9 3.01 -9 2.02 -9 1 C-5.98131566 -0.50934217 -3.32702771 -0.17510672 0 0 Z " fill="#417456" transform="translate(191,199)"/>
<path d="M0 0 C2.3125 -0.3125 2.3125 -0.3125 5 0 C6.8125 2.5 6.8125 2.5 8 5 C6.35 5.33 4.7 5.66 3 6 C0 2.25 0 2.25 0 0 Z " fill="#2E6744" transform="translate(118,128)"/>
<path d="M0 0 C0 0.99 0 1.98 0 3 C-4.22222222 6 -4.22222222 6 -7 6 C-7 4.35 -7 2.7 -7 1 C-4.50935112 0.31292445 -2.62113708 0 0 0 Z " fill="#FAFCFC" transform="translate(157,124)"/>
<path d="M0 0 C1.32 0 2.64 0 4 0 C3.34 1.98 2.68 3.96 2 6 C0.68 5.67 -0.64 5.34 -2 5 C-1.34 3.35 -0.68 1.7 0 0 Z " fill="#1E6038" transform="translate(119,250)"/>
<path d="M0 0 C2.39073445 3.82517513 2.55966552 7.59665524 3 12 C0.59927045 9.11912454 -1.47291037 6.43595166 -3 3 C-2.34 3 -1.68 3 -1 3 C-0.67 2.01 -0.34 1.02 0 0 Z " fill="#CAE8D6" transform="translate(129,130)"/>
<path d="M0 0 C2.0625 0.4375 2.0625 0.4375 4 1 C0.92000054 4.67230705 -1.2482602 5.56802365 -6 6 C-4 4 -2 2 0 0 Z " fill="#DDF1E5" transform="translate(188,104)"/>
<path d="M0 0 C0.66 0 1.32 0 2 0 C1.835 0.495 1.67 0.99 1.5 1.5 C0.61753399 5.91233004 0.3121996 10.28049901 2 14.5 C2.33 14.995 2.66 15.49 3 16 C1.68 15.67 0.36 15.34 -1 15 C-1.02703381 13.06257659 -1.04641125 11.12504521 -1.0625 9.1875 C-1.07410156 8.10855469 -1.08570312 7.02960938 -1.09765625 5.91796875 C-1 3 -1 3 0 0 Z " fill="#E9F9EE" transform="translate(81,92)"/>
<path d="M0 0 C1.65 1.65 3.3 3.3 5 5 C4.01 5.495 4.01 5.495 3 6 C2.67 6.99 2.34 7.98 2 9 C1.01 7.35 0.02 5.7 -1 4 C-0.34 4 0.32 4 1 4 C0.67 2.68 0.34 1.36 0 0 Z " fill="#2E6644" transform="translate(172,196)"/>
<path d="M0 0 C2.475 0.99 2.475 0.99 5 2 C3.25 4.0625 3.25 4.0625 1 6 C-1.25 5.75 -1.25 5.75 -3 5 C-2.01 3.35 -1.02 1.7 0 0 Z " fill="#F1F8F4" transform="translate(95,170)"/>
<path d="M0 0 C0.268125 0.5775 0.53625 1.155 0.8125 1.75 C1.93880119 4.06461975 1.93880119 4.06461975 3.6875 6.0625 C4.120625 6.701875 4.55375 7.34125 5 8 C4.67 8.99 4.34 9.98 4 11 C0.38860104 7.21243523 0.38860104 7.21243523 -1 5 C-0.8125 2.125 -0.8125 2.125 0 0 Z " fill="#DFF3E7" transform="translate(108,104)"/>
<path d="M0 0 C0.33 0 0.66 0 1 0 C1.13277344 0.69867188 1.26554688 1.39734375 1.40234375 2.1171875 C1.57894531 3.02726562 1.75554687 3.93734375 1.9375 4.875 C2.19853516 6.23238281 2.19853516 6.23238281 2.46484375 7.6171875 C2.89963701 9.99956317 2.89963701 9.99956317 4 12 C3.01 12.33 2.02 12.66 1 13 C0.67 12.01 0.34 11.02 0 10 C-0.66 9.34 -1.32 8.68 -2 8 C-1.7578125 6.0546875 -1.7578125 6.0546875 -1.125 3.875 C-0.92132813 3.15054688 -0.71765625 2.42609375 -0.5078125 1.6796875 C-0.34023437 1.12539063 -0.17265625 0.57109375 0 0 Z " fill="#D9EDE0" transform="translate(140,59)"/>
<path d="M0 0 C0.33 0 0.66 0 1 0 C1 2.97 1 5.94 1 9 C0.01 9 -0.98 9 -2 9 C-2.99 9.495 -2.99 9.495 -4 10 C-3.67 8.35 -3.34 6.7 -3 5 C-2.01 5 -1.02 5 0 5 C0 3.35 0 1.7 0 0 Z " fill="#39704E" transform="translate(138,191)"/>
<path d="M0 0 C1.32 0.33 2.64 0.66 4 1 C3.01 1.495 3.01 1.495 2 2 C1.26924352 4.3140622 0.59861742 6.64828869 0 9 C-1.32 9.33 -2.64 9.66 -4 10 C-2.68 6.7 -1.36 3.4 0 0 Z " fill="#DBF2E4" transform="translate(68,158)"/>
<path d="M0 0 C1.5 1.375 1.5 1.375 3 3 C3 3.66 3 4.32 3 5 C0.03 5 -2.94 5 -6 5 C-5.01 4.01 -4.02 3.02 -3 2 C-2.34 2 -1.68 2 -1 2 C-0.67 1.34 -0.34 0.68 0 0 Z " fill="#37724E" transform="translate(128,137)"/>
<path d="M0 0 C3.08089673 2.77280706 4.68775452 5.06326356 6 9 C3.11562221 7.70700306 1.12780579 6.34058637 -1 4 C-0.34 4 0.32 4 1 4 C0.67 2.68 0.34 1.36 0 0 Z " fill="#D3EEDE" transform="translate(119,131)"/>
<path d="M0 0 C2.375 0.25 2.375 0.25 5 1 C6.3125 3.0625 6.3125 3.0625 7 5 C5.35 5 3.7 5 2 5 C1.34 3.35 0.68 1.7 0 0 Z " fill="#1B5C38" transform="translate(96,122)"/>
<path d="M0 0 C2.62187494 1.04874998 3.79371361 1.64931313 5.25 4.125 C5.4975 4.74375 5.745 5.3625 6 6 C3.03 5.505 3.03 5.505 0 5 C-0.33 4.01 -0.66 3.02 -1 2 C-0.67 1.34 -0.34 0.68 0 0 Z " fill="#1E5E35" transform="translate(86,115)"/>
<path d="M0 0 C3.3 0 6.6 0 10 0 C7 3 7 3 3.3125 3.1875 C1.6728125 3.0946875 1.6728125 3.0946875 0 3 C0 2.01 0 1.02 0 0 Z " fill="#D6EADF" transform="translate(192,106)"/>
<path d="M0 0 C1.9451 2.91765 2.45276317 4.62537285 3 8 C1.35 7.67 -0.3 7.34 -2 7 C-2.6875 5.1875 -2.6875 5.1875 -3 3 C-1.5625 1.25 -1.5625 1.25 0 0 Z " fill="#2E6948" transform="translate(120,86)"/>
<path d="M0 0 C0.99 0 1.98 0 3 0 C4.6875 2.5 4.6875 2.5 6 5 C4.34385343 5.38218767 2.67542976 5.71395102 1 6 C0 5 0 5 -0.0625 2.4375 C-0.041875 1.633125 -0.02125 0.82875 0 0 Z " fill="#2A6543" transform="translate(160,183)"/>
<path d="M0 0 C-1.75 3.875 -1.75 3.875 -4 5 C-4 3.68 -4 2.36 -4 1 C-4.99 1.33 -5.98 1.66 -7 2 C-7 1.34 -7 0.68 -7 0 C-3.86650268 -1.04449911 -3.01031744 -0.93423645 0 0 Z " fill="#E8F9F1" transform="translate(112,173)"/>
<path d="M0 0 C0.33 1.32 0.66 2.64 1 4 C-0.32 4.99 -1.64 5.98 -3 7 C-3 6.34 -3 5.68 -3 5 C-3.99 5 -4.98 5 -6 5 C-5.67 4.01 -5.34 3.02 -5 2 C-5 2.66 -5 3.32 -5 4 C-3.35 2.68 -1.7 1.36 0 0 Z " fill="#1A5E33" transform="translate(149,138)"/>
<path d="M0 0 C0.99 0.33 1.98 0.66 3 1 C3.33 2.65 3.66 4.3 4 6 C2.68 5.67 1.36 5.34 0 5 C-0.5625 3.0625 -0.5625 3.0625 -1 1 C-0.67 0.67 -0.34 0.34 0 0 Z " fill="#F2FBF9" transform="translate(116,129)"/>
<path d="M0 0 C2 1.3125 2 1.3125 4 3 C4 3.99 4 4.98 4 6 C-1.75 4.25 -1.75 4.25 -4 2 C-2.68 2 -1.36 2 0 2 C0 1.34 0 0.68 0 0 Z " fill="#D7EFE3" transform="translate(85,110)"/>
<path d="M0 0 C1.32 0.33 2.64 0.66 4 1 C3.34 2.32 2.68 3.64 2 5 C0.68 5 -0.64 5 -2 5 C-1.34 3.35 -0.68 1.7 0 0 Z " fill="#2C6947" transform="translate(116,255)"/>
<path d="M0 0 C0.33 0 0.66 0 1 0 C1.3125 2.1875 1.3125 2.1875 1 5 C-1.5 7.8125 -1.5 7.8125 -4 10 C-4.33 9.01 -4.66 8.02 -5 7 C-4.01 6.34 -3.02 5.68 -2 5 C-0.79549696 2.44816596 -0.79549696 2.44816596 0 0 Z " fill="#296342" transform="translate(83,211)"/>
<path d="M0 0 C0.66 0.33 1.32 0.66 2 1 C2.625 4.0625 2.625 4.0625 3 7 C1.0625 6.1875 1.0625 6.1875 -1 5 C-1.33 4.01 -1.66 3.02 -2 2 C-1.34 2 -0.68 2 0 2 C0 1.34 0 0.68 0 0 Z " fill="#215E3B" transform="translate(144,161)"/>
<path d="M0 0 C-1.1875 1.5625 -1.1875 1.5625 -3 3 C-5.6875 2.6875 -5.6875 2.6875 -8 2 C-6.14210462 -1.71579076 -3.44525918 -1.06921837 0 0 Z " fill="#165D32" transform="translate(84,153)"/>
<path d="M0 0 C1.4540625 0.0309375 1.4540625 0.0309375 2.9375 0.0625 C-2.20535714 4.49107143 -2.20535714 4.49107143 -6.0625 5.0625 C-3.64893617 0.07446809 -3.64893617 0.07446809 0 0 Z " fill="#E1F5E8" transform="translate(98.0625,144.9375)"/>
<path d="M0 0 C0.33 1.32 0.66 2.64 1 4 C0.01 4.33 -0.98 4.66 -2 5 C-2.33 5.99 -2.66 6.98 -3 8 C-3.99 7.67 -4.98 7.34 -6 7 C-4.02 4.69 -2.04 2.38 0 0 Z " fill="#E1F4EB" transform="translate(155,135)"/>
<path d="M0 0 C0.33 0.66 0.66 1.32 1 2 C1.99 2.33 2.98 2.66 4 3 C1.03 5.475 1.03 5.475 -2 8 C-1.125 2.25 -1.125 2.25 0 0 Z " fill="#C1E2CF" transform="translate(147,132)"/>
<path d="M0 0 C0.66 0.66 1.32 1.32 2 2 C-1.465 4.97 -1.465 4.97 -5 8 C-5 6.68 -5 5.36 -5 4 C-4.34 4 -3.68 4 -3 4 C-3 3.34 -3 2.68 -3 2 C-2.01 2 -1.02 2 0 2 C0 1.34 0 0.68 0 0 Z " fill="#306C48" transform="translate(173,114)"/>
<path d="M0 0 C1.8871875 0.0309375 1.8871875 0.0309375 3.8125 0.0625 C1.10067788 2.66584924 -0.07883813 3.05706691 -3.9375 3.25 C-5.01 3.188125 -6.0825 3.12625 -7.1875 3.0625 C-7.1875 2.4025 -7.1875 1.7425 -7.1875 1.0625 C-4.43671116 0.14557039 -2.82801087 -0.04636083 0 0 Z " fill="#3F7153" transform="translate(58.1875,111.9375)"/>
<path d="M0 0 C2.31 0 4.62 0 7 0 C4.64722731 2.72426311 2.37503669 3.8141763 -1 5 C-0.67 3.35 -0.34 1.7 0 0 Z " fill="#D2E6D9" transform="translate(153,75)"/>
<path d="M0 0 C1.04059132 3.12177395 1.32284898 4.07083439 0 7 C-2.4375 8.3125 -2.4375 8.3125 -5 9 C-5.66 8.67 -6.32 8.34 -7 8 C-6.21625 7.4225 -5.4325 6.845 -4.625 6.25 C-2.19952756 4.17102363 -1.14305583 2.90959667 0 0 Z " fill="#D6EDDF" transform="translate(167,66)"/>
<path d="M0 0 C3.3 0.33 6.6 0.66 10 1 C6.71299843 2.64350079 4.52069985 3.41321669 1 4 C0.67 2.68 0.34 1.36 0 0 Z " fill="#F0FDF6" transform="translate(181,226)"/>
<path d="M0 0 C2.9375 0.375 2.9375 0.375 6 1 C6.33 1.66 6.66 2.32 7 3 C6.34 3 5.68 3 5 3 C4.67 3.66 4.34 4.32 4 5 C2 3.625 2 3.625 0 2 C0 1.34 0 0.68 0 0 Z " fill="#0D5F2E" transform="translate(63,217)"/>
<path d="M0 0 C0 0.66 0 1.32 0 2 C0.66 2.66 1.32 3.32 2 4 C-1.82097239 3.46930939 -4.06171403 2.50298434 -7 0 C-3.86650268 -1.04449911 -3.01031744 -0.93423645 0 0 Z " fill="#E2F2E7" transform="translate(81,196)"/>
<path d="M0 0 C0.99 0 1.98 0 3 0 C3 0.66 3 1.32 3 2 C2.01 2.495 2.01 2.495 1 3 C-0.13350534 5.01669827 -0.13350534 5.01669827 -1 7 C-1.66 6.67 -2.32 6.34 -3 6 C-1.125 1.125 -1.125 1.125 0 0 Z " fill="#1C5935" transform="translate(98,187)"/>
<path d="M0 0 C0.66 0.99 1.32 1.98 2 3 C0.35 4.32 -1.3 5.64 -3 7 C-3.33 5.68 -3.66 4.36 -4 3 C-2.68 2.01 -1.36 1.02 0 0 Z " fill="#D2EDDF" transform="translate(115,168)"/>
<path d="M0 0 C0.33 0.66 0.66 1.32 1 2 C0.06421005 4.35981813 -0.93347808 6.69631264 -2 9 C-2.33 8.01 -2.66 7.02 -3 6 C-3.66 5.67 -4.32 5.34 -5 5 C-3.35 3.35 -1.7 1.7 0 0 Z " fill="#DDF3E6" transform="translate(130,163)"/>
<path d="M0 0 C1.875 0.1875 1.875 0.1875 4 1 C5.25 3.5625 5.25 3.5625 6 6 C5.01 6.495 5.01 6.495 4 7 C0 2.25 0 2.25 0 0 Z " fill="#E6F5EA" transform="translate(167,156)"/>
<path d="M0 0 C2.29633824 3.44450737 2.54016485 5.93812283 3 10 C0 8 0 8 -0.75 6.125 C-1.02298092 3.80466218 -0.71043724 2.21024918 0 0 Z " fill="#D4E9DB" transform="translate(123,108)"/>
<path d="M0 0 C0.66 0 1.32 0 2 0 C1.67 2.97 1.34 5.94 1 9 C0.34 9 -0.32 9 -1 9 C-1.09765625 2.84765625 -1.09765625 2.84765625 -1 1 C-0.67 0.67 -0.34 0.34 0 0 Z " fill="#447457" transform="translate(82,95)"/>
<path d="M0 0 C0.99 0.33 1.98 0.66 3 1 C2.34 2.98 1.68 4.96 1 7 C-1 4 -1 4 -0.625 1.8125 C-0.41875 1.214375 -0.2125 0.61625 0 0 Z " fill="#215F3A" transform="translate(129,227)"/>
<path d="M0 0 C0.99 0.33 1.98 0.66 3 1 C2.34 2.65 1.68 4.3 1 6 C-0.32 6 -1.64 6 -3 6 C-2 3 -2 3 0 1 C0 0.67 0 0.34 0 0 Z " fill="#225F3C" transform="translate(132,164)"/>
<path d="M0 0 C2.93200474 2.85276137 5.64315404 5.65079784 8 9 C4.63704165 7.55873214 2.37072898 5.79407345 0 3 C0 2.01 0 1.02 0 0 Z " fill="#DCEFE2" transform="translate(104,112)"/>
<path d="M0 0 C0.99 0.33 1.98 0.66 3 1 C0.75 3.5625 0.75 3.5625 -2 6 C-4.3125 5.8125 -4.3125 5.8125 -6 5 C-4.515 4.0409375 -4.515 4.0409375 -3 3.0625 C-2.01 2.381875 -1.02 1.70125 0 1 C0 0.67 0 0.34 0 0 Z " fill="#2A6040" transform="translate(162,69)"/>
<path d="M0 0 C0.8971875 0.309375 0.8971875 0.309375 1.8125 0.625 C-3.8125 4.5 -3.8125 4.5 -7.1875 5.625 C-5.69046729 2.17030914 -4.27938051 -0.73360809 0 0 Z " fill="#E0F4E9" transform="translate(100.1875,48.375)"/>
<path d="M0 0 C3.625 -0.1875 3.625 -0.1875 7 0 C4.37352812 1.75098126 1.71224618 3.38731308 -1 5 C-1.33 4.34 -1.66 3.68 -2 3 C-1.34 2.01 -0.68 1.02 0 0 Z " fill="#D5EBDE" transform="translate(144,48)"/>
<path d="M0 0 C0.33 0 0.66 0 1 0 C1.28571429 7.42857143 1.28571429 7.42857143 -1 11 C-1.66 10.67 -2.32 10.34 -3 10 C-2.690625 9.46375 -2.38125 8.9275 -2.0625 8.375 C-0.82172561 5.6015043 -0.4090325 2.99957163 0 0 Z " fill="#3F7154" transform="translate(201,209)"/>
<path d="M0 0 C-3.53411321 2.12046792 -6.94393835 2.53199289 -11 3 C-7.48550811 -0.37391222 -4.73940561 -0.27342725 0 0 Z " fill="#45775A" transform="translate(74,196)"/>
<path d="M0 0 C3.26954202 0.56371414 4.82575883 1.49962266 7 4 C6.67 4.99 6.34 5.98 6 7 C1.125 2.25 1.125 2.25 0 0 Z " fill="#DDF0E2" transform="translate(163,184)"/>
<path d="M0 0 C2.475 0.99 2.475 0.99 5 2 C5.33 1.34 5.66 0.68 6 0 C6 1.65 6 3.3 6 5 C3.69 4.01 1.38 3.02 -1 2 C-0.67 1.34 -0.34 0.68 0 0 Z " fill="#336D4B" transform="translate(152,179)"/>
<path d="M0 0 C3.35595828 0.59927826 5.37801226 1.84622436 8 4 C5.3333581 5.33332095 3.83319697 4.67102033 1 4 C0.67 2.68 0.34 1.36 0 0 Z " fill="#457A58" transform="translate(121,155)"/>
<path d="M0 0 C1.32 0 2.64 0 4 0 C4 0.66 4 1.32 4 2 C6.31 2 8.62 2 11 2 C11 2.33 11 2.66 11 3 C8.36 3.33 5.72 3.66 3 4 C2.01 2.68 1.02 1.36 0 0 Z " fill="#376F4F" transform="translate(67,154)"/>
<path d="M0 0 C0.66 0 1.32 0 2 0 C2 1.98 2 3.96 2 6 C0.35 5.67 -1.3 5.34 -3 5 C-3 4.34 -3 3.68 -3 3 C-2.34 3 -1.68 3 -1 3 C-0.67 2.01 -0.34 1.02 0 0 Z " fill="#397553" transform="translate(90,150)"/>
<path d="M0 0 C0.7734375 0.495 0.7734375 0.495 1.5625 1 C4.78026512 2.32010877 7.5570528 2.13242105 11 2 C7.5647952 4.29013653 6.014669 4.17842973 2 4 C1.34 2.68 0.68 1.36 0 0 Z " fill="#D4EDDD" transform="translate(65,150)"/>
<path d="M0 0 C1 4 1 4 0 6 C-2.5625 6.625 -2.5625 6.625 -5 7 C-3.35 4.69 -1.7 2.38 0 0 Z " fill="#D1EDDF" transform="translate(148,143)"/>
</svg>
